HIERARCHY
ROOT Hips
{
 OFFSET 0.000000 0.000000 0.000000
 CHANNELS 6 Xposition Yposition Zposition Yrotation Xrotation Zrotation
 JOINT Chest
 {
  OFFSET 0.000000 10.080317 -0.001081
  CHANNELS 3 Yrotation Xrotation Zrotation
  JOINT Chest2
  {
   OFFSET 0.000000 11.096852 0.001963
   CHANNELS 3 Yrotation Xrotation Zrotation
   JOINT Chest3
   {
    OFFSET 0.000000 10.026525 0.000000
    CHANNELS 3 Yrotation Xrotation Zrotation
    JOINT Chest4
    {
     OFFSET 0.000000 10.026525 0.000000
     CHANNELS 3 Yrotation Xrotation Zrotation
     JOINT Neck
     {
      OFFSET 0.000000 14.108171 0.000000
      CHANNELS 3 Yrotation Xrotation Zrotation
      JOINT Head
      {
       OFFSET 0.000000 9.333493 0.004668
       CHANNELS 3 Yrotation Xrotation Zrotation
       End Site
       {
        OFFSET 0.000000 17.851786 0.002438
       }
      }
     }
     JOINT RightCollar
     {
      OFFSET -3.071622 7.873185 0.000000
      CHANNELS 3 Yrotation Xrotation Zrotation
      JOINT RightShoulder
      {
       OFFSET -14.378659 0.000000 0.000000
       CHANNELS 3 Yrotation Xrotation Zrotation
       JOINT RightElbow
       {
        OFFSET -30.778728 0.000000 0.000000
        CHANNELS 3 Yrotation Xrotation Zrotation
        JOINT RightWrist
        {
         OFFSET -25.164217 0.000000 0.000000
         CHANNELS 3 Yrotation Xrotation Zrotation
         End Site
         {
          OFFSET -18.796788 0.000000 0.000000
         }
        }
       }
      }
     }
     JOINT LeftCollar
     {
      OFFSET 3.071622 7.873185 0.000000
      CHANNELS 3 Yrotation Xrotation Zrotation
      JOINT LeftShoulder
      {
       OFFSET 14.378659 0.000000 0.000000
       CHANNELS 3 Yrotation Xrotation Zrotation
       JOINT LeftElbow
       {
        OFFSET 30.778728 0.000000 0.000000
        CHANNELS 3 Yrotation Xrotation Zrotation
        JOINT LeftWrist
        {
         OFFSET 25.164217 0.000000 0.000000
         CHANNELS 3 Yrotation Xrotation Zrotation
         End Site
         {
          OFFSET 18.796788 0.000000 0.000000
         }
        }
       }
      }
     }
    }
   }
  }
 }
 JOINT RightHip
 {
  OFFSET -8.194923 0.005295 0.000540
  CHANNELS 3 Yrotation Xrotation Zrotation
  JOINT RightKnee
  {
   OFFSET 0.000000 -42.473320 -0.000511
   CHANNELS 3 Yrotation Xrotation Zrotation
   JOINT RightAnkle
   {
    OFFSET 0.000000 -41.474259 -0.000865
    CHANNELS 3 Yrotation Xrotation Zrotation
    JOINT RightToe
    {
     OFFSET 0.000000 -7.354994 16.712725
     CHANNELS 3 Yrotation Xrotation Zrotation
     End Site
     {
      OFFSET 0.000000 -1.553903 6.764158
     }
    }
   }
  }
 }
 JOINT LeftHip
 {
  OFFSET 8.194923 0.005295 0.000540
  CHANNELS 3 Yrotation Xrotation Zrotation
  JOINT LeftKnee
  {
   OFFSET 0.000000 -42.473320 -0.000511
   CHANNELS 3 Yrotation Xrotation Zrotation
   JOINT LeftAnkle
   {
    OFFSET 0.000000 -41.474259 -0.000865
    CHANNELS 3 Yrotation Xrotation Zrotation
    JOINT LeftToe
    {
     OFFSET 0.000000 -7.354994 16.712725
     CHANNELS 3 Yrotation Xrotation Zrotation
     End Site
     {
      OFFSET 0.000000 -1.553903 6.764158
     }
    }
   }
  }
 }
}
MOTION
Frames: 10
Frame Time: 0.016667
0.000000 91.111157 0.000000 0.000000 -5.826342 0.000000 0.000000 11.116423 0.000000 0.000000 -5.290081 0.000000 0.000000 0.000000 0.000000 0.000000 0.000000 0.000000 0.000000 12.665069 0.000000 0.000000 0.575450 0.000000 0.000000 0.000000 0.000000 0.000000 0.000000 0.000000 2.337306 0.000000 0.000000 -2.337306 0.000000 0.000000 0.000000 0.000000 0.000000 0.000000 0.000000 0.000000 -2.337306 0.000000 0.000000 2.337306 0.000000 0.000000 0.000000 8.578828 0.000000 0.000000 1.905768 0.000000 0.000000 -4.658254 0.000000 0.000000 0.000000 0.000000 0.000000 8.578828 0.000000 0.000000 1.905768 0.000000 0.000000 -4.658254 0.000000 0.000000 0.000000 0.000000
70.321021 92.653308 28.214829 177.750828 -4.431339 -0.944872 2.990674 2.363688 0.968404 1.325178 1.056932 0.344736 1.325178 1.056932 0.344736 0.993259 0.793451 0.256254 9.168238 17.747616 -0.836385 17.167718 -2.601577 -4.580279 -2.877832 -4.662917 14.764621 9.490961 2.611194 58.709083 60.628524 40.514714 40.568924 -7.562953 12.603631 -41.124979 -13.397336 -3.616446 -12.895121 -7.754909 -13.275713 -69.947440 -56.939269 40.779053 -48.033535 9.601049 13.133001 28.546185 1.856537 6.268725 -1.526176 -0.601068 1.990732 0.547996 -0.739002 -3.462024 3.332676 -0.155911 0.337402 -0.037414 6.082556 8.944089 7.143819 4.829984 2.986729 -0.279052 3.719201 -6.758126 -3.955555 0.111206 0.289543 0.195920
70.265989 92.645701 28.250495 177.679539 -4.284618 -0.915929 3.021845 2.346838 0.932057 1.341026 1.051193 0.325523 1.341026 1.051193 0.325523 1.005181 0.789114 0.241830 9.125077 17.724603 -0.842574 17.092682 -2.648321 -4.581013 -2.804206 -4.803665 14.800024 9.893877 2.539759 59.002827 60.744394 40.394770 40.754631 -8.160380 12.451308 -41.436051 -13.467999 -3.663012 -12.896520 -7.902443 -13.375614 -69.890336 -57.653125 40.017106 -48.590268 8.735100 13.020896 29.150294 1.723068 6.075561 -1.623057 -0.508706 2.017880 0.553931 -0.649679 -3.472614 3.373272 -0.165610 0.349978 -0.046742 5.930145 9.116108 6.969590 5.100964 2.370547 -0.192778 3.707267 -6.480648 -3.992749 0.120266 0.251252 0.206122
70.220924 92.638658 28.294419 177.609163 -4.152911 -0.882189 3.056333 2.339729 0.895471 1.358430 1.048520 0.306335 1.358430 1.048520 0.306335 1.018269 0.787076 0.227416 9.075036 17.678979 -0.861134 17.011308 -2.735737 -4.605280 -2.707740 -4.894005 14.859474 10.327699 2.394441 59.256863 60.766816 40.107193 40.933943 -8.809690 12.356911 -41.853867 -13.512359 -3.701855 -12.891037 -8.055476 -13.501644 -69.879786 -58.477648 39.213881 -49.285308 7.672310 12.933549 29.971433 1.598736 5.881583 -1.706371 -0.420998 2.065164 0.540535 -0.565232 -3.485735 3.408111 -0.174675 0.361009 -0.047781 5.682544 9.284719 6.797898 5.383790 1.802210 -0.132923 3.742603 -6.213115 -4.027679 0.128544 0.211377 0.217462
70.183100 92.636137 28.348058 177.547523 -4.055995 -0.858184 3.098758 2.343494 0.865215 1.378876 1.052130 0.290178 1.378876 1.052130 0.290178 1.033629 0.789757 0.215255 9.020355 17.623577 -0.885772 16.924378 -2.840845 -4.640488 -2.612860 -4.941031 14.916725 10.724325 2.203837 59.522480 60.514700 39.649693 40.951405 -9.494479 12.439436 -42.310515 -13.539201 -3.713716 -12.896747 -8.210032 -13.624487 -69.906549 -59.243073 38.274862 -49.891436 6.448825 12.758795 30.719177 1.493240 5.713141 -1.767526 -0.358012 2.118169 0.520236 -0.484385 -3.483854 3.443658 -0.186849 0.361223 -0.051624 5.364908 9.448588 6.645551 5.698468 1.308591 -0.093971 3.791462 -5.960487 -4.050285 0.133948 0.162966 0.221468
70.143215 92.634025 28.401122 177.509452 -3.961357 -0.843426 3.155613 2.347116 0.845155 1.407163 1.053347 0.278486 1.407163 1.053347 0.278486 1.054863 0.790657 0.206434 8.948725 17.562892 -0.911186 16.807045 -2.957634 -4.672332 -2.511955 -4.921647 14.973440 11.032754 1.953078 59.804630 59.998974 38.978257 40.784720 -10.259656 12.575058 -42.639528 -13.593182 -3.700597 -12.908990 -8.323826 -13.751464 -69.944458 -59.960037 37.183790 -50.456011 5.218448 12.572864 31.095565 1.399858 5.572365 -1.829478 -0.320610 2.124861 0.524355 -0.415964 -3.455768 3.465511 -0.196459 0.359779 -0.053761 5.066866 9.556168 6.520959 5.952151 0.916556 -0.073331 3.845870 -5.755461 -4.072745 0.133946 0.118224 0.230122
70.107953 92.633860 28.456769 177.506873 -3.892573 -0.848106 3.196173 2.367330 0.841150 1.428693 1.062785 0.275131 1.428693 1.062785 0.275131 1.071011 0.797737 0.203859 8.878027 17.502579 -0.936902 16.691477 -3.073584 -4.704889 -2.354061 -4.857940 15.005042 11.240420 1.639497 60.083345 59.083831 38.071773 40.324463 -11.079723 12.766686 -42.783349 -13.618562 -3.701701 -12.966390 -8.309084 -13.869940 -69.963681 -60.658244 35.970586 -51.007283 4.333866 12.437252 31.172296 1.292933 5.469874 -1.866406 -0.280134 2.108167 0.521318 -0.365007 -3.405600 3.491852 -0.202003 0.350557 -0.057397 4.883981 9.628916 6.441430 6.103665 0.599151 -0.046218 3.855810 -5.585924 -4.090216 0.134423 0.082261 0.228870
70.071907 92.632937 28.507760 177.536918 -3.823273 -0.847426 3.250438 2.382718 0.836177 1.454619 1.067896 0.270756 1.454619 1.067896 0.270756 1.090460 0.801572 0.200520 8.799901 17.451517 -0.949443 16.556901 -3.175307 -4.709537 -2.227219 -4.753470 15.043160 11.335835 1.274850 60.400378 57.963116 37.058924 39.781610 -11.847225 12.871973 -42.767870 -13.674961 -3.718585 -13.050132 -8.250245 -13.954688 -69.968085 -60.954398 34.535320 -51.298369 3.630463 12.291066 30.566709 1.167890 5.397538 -1.922958 -0.236435 2.045599 0.544163 -0.327478 -3.336673 3.512719 -0.208668 0.342915 -0.065801 4.825085 9.639163 6.400734 6.161835 0.376333 -0.055838 3.825027 -5.463205 -4.099378 0.138053 0.052745 0.234389
70.032266 92.632108 28.555196 177.619853 -3.755619 -0.845414 3.301613 2.397603 0.828132 1.478106 1.072862 0.266422 1.478106 1.072862 0.266422 1.108080 0.805296 0.197217 8.723874 17.407110 -0.954499 16.422983 -3.265573 -4.700130 -2.126626 -4.610482 15.084794 11.420841 0.866055 60.706375 56.565188 35.949291 39.088248 -12.418951 12.869436 -42.642082 -13.724184 -3.768314 -13.171047 -8.116036 -14.078728 -69.989370 -60.744885 32.974167 -51.444982 2.927412 12.184733 29.092673 1.047842 5.353115 -1.978210 -0.250809 1.950967 0.560410 -0.288369 -3.260509 3.546204 -0.212812 0.339361 -0.077995 4.866867 9.576229 6.362806 6.109600 0.263342 -0.028693 3.764888 -5.394061 -4.106711 0.139302 0.031392 0.223465
69.987101 92.633516 28.594401 177.750735 -3.696334 -0.842434 3.341575 2.408198 0.820834 1.496883 1.076059 0.264074 1.496883 1.076059 0.264074 1.122164 0.807697 0.195415 8.644754 17.381738 -0.952222 16.278987 -3.322101 -4.673611 -2.023876 -4.455298 15.114139 11.487448 0.457966 61.000245 54.950908 34.715586 38.281311 -12.737688 12.738292 -42.425280 -13.730428 -3.822313 -13.305190 -7.962906 -14.202429 -70.055162 -60.292295 31.460587 -51.573871 2.592798 12.056921 27.181852 0.909538 5.345189 -2.046305 -0.288880 1.823153 0.594582 -0.254610 -3.169995 3.573471 -0.214390 0.330969 -0.087381 4.972758 9.463603 6.349438 5.938592 0.248962 -0.017331 3.713474 -5.370571 -4.103335 0.139158 0.010532 0.211759
